<svg version="1.2" xmlns="http://www.w3.org/2000/svg" viewBox="0 0 28 28" width="28" height="28"><style>.a{fill:#fff}</style><path fill-rule="evenodd" class="a" d="m24.5 20.1q0 0.5-0.2 0.9-0.3 0.4-0.7 0.6-0.4 0.3-0.9 0.3h-4.4c-0.2 1-0.8 1.9-1.5 2.5-0.8 0.6-1.8 1-2.8 1-1 0-2-0.4-2.8-1-0.7-0.6-1.3-1.5-1.5-2.5h-4.5q-0.4 0-0.8-0.3-0.4-0.2-0.7-0.6-0.2-0.4-0.2-0.9 0-0.5 0.2-0.9c0.6-1 1.5-4 1.5-7.8 0-2.3 1-4.6 2.6-6.2 1.7-1.7 3.9-2.6 6.2-2.6 2.3 0 4.5 0.9 6.2 2.6 1.6 1.6 2.5 3.9 2.5 6.2 0 3.8 1 6.8 1.6 7.8q0.2 0.4 0.2 0.9zm-9 3c0.5-0.3 0.8-0.7 1-1.2h-5c0.2 0.5 0.5 0.9 1 1.2 0.4 0.4 1 0.5 1.5 0.5 0.5 0 1.1-0.1 1.5-0.5z"/></svg>