<svg version="1.2" xmlns="http://www.w3.org/2000/svg" viewBox="0 0 28 28" width="28" height="28"><style>.a{fill:#fff}</style><path class="a" d="m24.1 18.5l-10.1 5.9-10.1-5.9q-0.3-0.2-0.6-0.1-0.3 0.1-0.5 0.4-0.2 0.3-0.1 0.7 0.1 0.3 0.4 0.5l10.5 6.1q0.2 0.1 0.4 0.2 0.2-0.1 0.4-0.2l10.5-6.1q0.2-0.1 0.3-0.2 0.1-0.2 0.2-0.3 0-0.2 0-0.4 0-0.1-0.1-0.3-0.1-0.1-0.3-0.3-0.1-0.1-0.3-0.1-0.1 0-0.3 0-0.2 0-0.3 0.1z"/><path class="a" d="m24.1 13.2l-10.1 5.9-10.1-5.9q-0.3-0.1-0.6 0-0.3 0.1-0.5 0.4-0.2 0.3-0.1 0.6 0.1 0.4 0.4 0.6l10.5 6.1q0.2 0.1 0.4 0.1 0.2 0 0.4-0.1l10.5-6.1q0.2-0.1 0.3-0.3 0.1-0.1 0.2-0.3 0-0.1 0-0.3 0-0.2-0.1-0.3-0.1-0.2-0.3-0.3-0.1-0.1-0.3-0.2-0.1 0-0.3 0-0.2 0.1-0.3 0.1z"/><path class="a" d="m3.1 9.5l10.5 6.1q0.2 0.1 0.4 0.1 0.2 0 0.4-0.1l10.5-6.1q0.2-0.1 0.4-0.3 0.1-0.2 0.1-0.4 0-0.3-0.1-0.5-0.2-0.2-0.4-0.3l-10.5-6.1q-0.2-0.1-0.4-0.1-0.2 0-0.4 0.1l-10.5 6.1q-0.2 0.1-0.4 0.3-0.1 0.2-0.1 0.5 0 0.2 0.1 0.4 0.2 0.2 0.4 0.3z"/></svg>