<svg version="1.2" xmlns="http://www.w3.org/2000/svg" viewBox="0 0 20 20" width="20" height="20"><style>.a{fill:#1e1e1e}</style><path fill-rule="evenodd" class="a" d="m18.2 1.8c1 1 1.5 2.3 1.6 3.7v9c-0.1 1.4-0.6 2.7-1.6 3.7-1 1-2.3 1.5-3.7 1.5h-9c-1.4 0-2.7-0.5-3.7-1.5-1-1-1.5-2.3-1.5-3.7v-9c0-1.4 0.5-2.7 1.5-3.7 1-1 2.3-1.5 3.7-1.6l9 0.1c1.4 0 2.7 0.5 3.7 1.5zm-5 11.4c0.8-0.9 1.3-2 1.3-3.2 0-0.9-0.3-1.8-0.8-2.5-0.5-0.7-1.2-1.3-2-1.7-0.8-0.3-1.7-0.4-2.6-0.2-0.9 0.2-1.7 0.6-2.3 1.2-0.6 0.6-1 1.4-1.2 2.3-0.2 0.9-0.1 1.8 0.2 2.6 0.4 0.8 1 1.5 1.7 2 0.7 0.5 1.6 0.8 2.5 0.8 1.2 0 2.3-0.5 3.2-1.3zm3.2-8c0.2-0.2 0.4-0.5 0.4-0.8q-0.1-0.4-0.2-0.7-0.2-0.2-0.5-0.4-0.4-0.1-0.7 0-0.3 0-0.6 0.3-0.2 0.2-0.3 0.6 0 0.3 0.1 0.6 0.1 0.3 0.4 0.5 0.3 0.2 0.6 0.2c0.3 0 0.6-0.1 0.8-0.3zm-3.4 4.8c0 0.6-0.2 1.2-0.5 1.7-0.3 0.5-0.8 0.8-1.4 1.1-0.5 0.2-1.1 0.3-1.7 0.1-0.6-0.1-1.1-0.4-1.5-0.8-0.4-0.4-0.7-0.9-0.8-1.5-0.2-0.6-0.1-1.2 0.1-1.7 0.3-0.6 0.6-1.1 1.1-1.4 0.5-0.3 1.1-0.5 1.7-0.5 0.8 0 1.6 0.3 2.1 0.9 0.6 0.5 0.9 1.3 0.9 2.1z"/></svg>