<svg version="1.2" xmlns="http://www.w3.org/2000/svg" viewBox="0 0 24 25" width="24" height="25"><style>.a{fill:none;stroke:#1e1e1e;stroke-linecap:round;stroke-linejoin:round;stroke-width:2}</style><path fill-rule="evenodd" class="a" d="m12 22.8c5.5 0 10-4.5 10-10 0-5.5-4.5-10-10-10-5.5 0-10 4.5-10 10 0 5.5 4.5 10 10 10z"/><path fill-rule="evenodd" class="a" d="m9.1 9.8c0.2-0.6 0.7-1.2 1.3-1.6 0.6-0.3 1.3-0.5 2-0.3 0.7 0.1 1.4 0.4 1.8 1 0.5 0.5 0.7 1.2 0.7 1.9 0 2-3 3-3 3"/><path fill-rule="evenodd" class="a" d="m12 17.8"/></svg>