<svg version="1.2" xmlns="http://www.w3.org/2000/svg" viewBox="0 0 18 14" width="18" height="14"><defs><clipPath clipPathUnits="userSpaceOnUse" id="cp1"><path d="m0 0h18v14h-18z"/></clipPath></defs><style>.a{fill:#1e1e1e}</style><g clip-path="url(#cp1)"><path fill-rule="evenodd" class="a" d="m11.8 7c0 3.4-2.6 6.3-5.9 6.3-3.3 0-5.9-2.9-5.9-6.3 0-3.5 2.6-6.3 5.9-6.3 3.3 0 5.9 2.8 5.9 6.3zm-4.1 0c0-1.1-0.8-1.9-1.8-1.9-1 0-1.8 0.8-1.8 1.9 0 1 0.8 1.9 1.8 1.9 1 0 1.8-0.9 1.8-1.9z"/><path class="a" d="m12.6 5.4c1.5 0.5 3.2 0 3.2 0-0.5 2.4-2.1 3.9-4.5 4.1-0.9 2.2-3 3.8-5.4 3.8l1.8-6c1.8-6.2 2.7-6.6 7.1-6.6h2.9c-0.5 2.3-2.2 4.1-5.1 4.7z"/></g></svg>