<svg version="1.2" xmlns="http://www.w3.org/2000/svg" viewBox="0 0 24 24" width="24" height="24"><style>.a{fill:#1e1e1e}</style><path fill-rule="evenodd" class="a" d="m23 11q-0.3 0.5-0.7 1 0.2 0.7 0.2 1.5c0 2.1-1.1 4-3.2 5.4-1.9 1.3-4.5 2.1-7.3 2.1-2.8 0-5.4-0.8-7.3-2.1-2.1-1.4-3.2-3.3-3.2-5.4q0-0.8 0.2-1.5c-0.5-0.6-0.9-1.3-0.9-2.1-0.1-0.8 0.2-1.5 0.7-2.1 0.6-0.6 1.3-1 2.1-1 0.7-0.1 1.5 0.2 2.1 0.7 1.6-0.9 3.6-1.4 5.7-1.5l0.6-3.9q0.1-0.3 0.3-0.5 0.3-0.1 0.6-0.1l2.4 0.4c0.3-0.5 0.7-0.8 1.2-1 0.5-0.2 1-0.2 1.5 0 0.5 0.2 0.9 0.5 1.2 1 0.3 0.4 0.4 1 0.3 1.5-0.1 0.5-0.4 1-0.8 1.3-0.4 0.4-0.9 0.6-1.5 0.6-0.5-0.1-1-0.2-1.4-0.6-0.4-0.3-0.7-0.8-0.8-1.3l-1.6-0.3-0.5 2.9c1.9 0.1 3.8 0.6 5.4 1.5 0.4-0.4 1-0.6 1.5-0.7 0.6-0.1 1.2 0 1.7 0.2 0.5 0.3 1 0.6 1.3 1.1 0.3 0.5 0.4 1.1 0.4 1.7q0 0.6-0.2 1.2zm-6.3-8.5q-0.2 0.2-0.2 0.5 0 0.2 0.1 0.4 0.2 0.2 0.4 0.3 0.2 0.1 0.4 0 0.2 0 0.4-0.2 0.1-0.1 0.2-0.4 0-0.2-0.1-0.4 0-0.2-0.2-0.3-0.2-0.1-0.5-0.2-0.3 0.1-0.5 0.3zm-9.5 10.6c0.3 0.2 0.7 0.4 1 0.4q0.5 0 0.9-0.3 0.4-0.2 0.5-0.6 0.2-0.4 0.1-0.9-0.1-0.4-0.4-0.8-0.3-0.3-0.8-0.4-0.4-0.1-0.8 0.1-0.4 0.2-0.7 0.6-0.2 0.3-0.3 0.8c0 0.4 0.2 0.8 0.5 1.1zm8.4 3.9q0.1-0.1 0.1-0.3 0.1-0.1 0-0.3 0-0.1 0-0.3-0.1-0.1-0.2-0.2-0.1-0.1-0.3-0.1-0.1-0.1-0.3 0-0.1 0-0.3 0c-0.8 0.5-1.7 0.7-2.6 0.7-0.9 0-1.8-0.2-2.6-0.7q-0.2 0-0.3 0-0.2-0.1-0.3 0-0.2 0-0.3 0.1-0.1 0.1-0.2 0.2 0 0.2 0 0.3-0.1 0.2 0 0.3 0 0.2 0.1 0.3 0.1 0.1 0.2 0.2c1.1 0.5 2.2 0.8 3.4 0.8 1.2 0 2.3-0.3 3.4-0.8q0.1-0.1 0.2-0.2zm1.2-3.9c0.3-0.3 0.4-0.7 0.4-1.1q0-0.5-0.2-0.8-0.3-0.4-0.7-0.6-0.4-0.2-0.8-0.1-0.5 0.1-0.8 0.4-0.3 0.4-0.4 0.8-0.1 0.5 0.1 0.9 0.1 0.4 0.5 0.6 0.4 0.3 0.8 0.3c0.4 0 0.8-0.2 1.1-0.4z"/></svg>