<svg version="1.2" xmlns="http://www.w3.org/2000/svg" viewBox="0 0 24 24" width="24" height="24"><style>.a{fill:#1e1e1e}</style><path class="a" d="m21.8 7.5l-0.1 3.8q0 0.3-0.2 0.5-0.2 0.2-0.5 0.2c-1.6 0-3.1-0.4-4.5-1.1v3.7c0 1.9-0.8 3.7-2.1 5.1-1.3 1.3-3.1 2.1-5 2.1-1.9 0-3.7-0.8-5.1-2.1-1.3-1.4-2.1-3.2-2.1-5.1 0-3.4 2.6-6.5 5.9-7.1q0.2 0 0.3 0 0.2 0.1 0.3 0.2 0.2 0.1 0.2 0.2 0.1 0.2 0.1 0.3v4.1q0 0.2-0.1 0.4-0.1 0.1-0.3 0.2-0.5 0.3-0.8 0.7-0.3 0.4-0.3 0.9 0 0.5 0.2 1 0.2 0.4 0.7 0.7 0.4 0.3 0.9 0.3 0.5 0 1-0.2 0.4-0.3 0.7-0.7 0.2-0.5 0.2-1v-12.3q0.1-0.4 0.3-0.6 0.2-0.2 0.5-0.2h3.7q0.4 0 0.6 0.2 0.2 0.2 0.2 0.6c0 1.1 0.5 2.3 1.3 3.1 0.9 0.9 2 1.3 3.2 1.4q0.3 0 0.5 0.2 0.2 0.2 0.2 0.5z"/></svg>