<svg version="1.2" xmlns="http://www.w3.org/2000/svg" viewBox="0 0 24 24" width="24" height="24"><style>.a{fill:#1e1e1e}</style><path class="a" d="m23 7.3l-2.8 2.8c-0.5 6.5-6.1 11.7-12.7 11.7q-2-0.1-3.3-0.7c-0.7-0.3-1-0.7-1.1-0.8q-0.1-0.2-0.1-0.3 0-0.2 0-0.4 0.1-0.1 0.2-0.2 0.1-0.2 0.3-0.2c0 0 2.3-0.9 3.7-2.5q-1.2-1-2.1-2.3c-1.1-1.7-2.4-4.7-2-9.2q0-0.2 0.1-0.4 0.2-0.2 0.4-0.3 0.2 0 0.4 0 0.2 0.1 0.4 0.2c0 0.1 3.1 3.1 6.8 4.1v-0.6q0-0.9 0.4-1.7 0.3-0.8 1-1.5 0.6-0.6 1.4-0.9 0.9-0.4 1.8-0.4c0.7 0.1 1.5 0.3 2.2 0.7 0.7 0.4 1.2 0.9 1.6 1.6h2.9q0.2 0 0.4 0.1 0.2 0.2 0.3 0.4 0.1 0.2 0 0.4 0 0.2-0.2 0.4z"/></svg>