<svg version="1.2" xmlns="http://www.w3.org/2000/svg" viewBox="0 0 24 24" width="24" height="24"><style>.a{fill:#1e1e1e}</style><path fill-rule="evenodd" class="a" d="m22.5 12c0 2.8-0.3 4.5-0.5 5.5q-0.2 0.5-0.5 0.9-0.4 0.4-0.9 0.6c-3.1 1.2-7.9 1.3-8.5 1.3l-0.2-0.1c-0.6 0-5.4 0-8.5-1.2q-0.5-0.2-0.9-0.6-0.3-0.4-0.5-0.9c-0.2-1-0.5-2.7-0.5-5.5 0-2.8 0.3-4.5 0.5-5.5q0.2-0.5 0.5-0.9 0.4-0.4 0.9-0.6c3.2-1.3 8.3-1.3 8.6-1.3 0.3 0 5.4 0 8.6 1.3q0.5 0.2 0.9 0.6 0.3 0.4 0.5 0.9c0.2 1 0.5 2.7 0.5 5.5zm-7.2 0.2q0.1-0.1 0.1-0.2 0-0.1-0.1-0.2 0-0.1-0.1-0.1l-4.5-3q-0.1-0.1-0.2-0.1-0.1 0-0.2 0.1-0.1 0-0.1 0.1-0.1 0.1-0.1 0.2v6q0 0.1 0.1 0.2 0 0.1 0.1 0.1 0.1 0.1 0.2 0.1 0.1 0 0.2-0.1l4.5-3q0.1 0 0.1-0.1z"/></svg>